ffmpeg started on 2025-06-07 at 16:51:52
Report written to "D:\Convert\FFMetrics\reports\ssim_report-6.txt"
Log level: 32
Command line:
ffmpeg -hide_banner -nostdin -i "G:\\\xc0\xed\xe8\xec\xe5\\\xce\xed\xe3\xee\xe8\xed\xe3\xe8\\!_36_\xce\xf1\xe5\xed\xfc_2024\\DreamCast\\\xd6\xe8\xea\xeb \xe8\xf1\xf2\xee\xf0\xe8\xe9 - \xcc\xe5\xe6\xf1\xe5\xe7\xee\xed\xfc\xe5 \xe8 \xf1\xe5\xe7\xee\xed \xec\xee\xed\xf1\xf2\xf0\xee\xe2\\DC_Monogatari_Series_Off_and_Monster_Season_11_Telegram_HEVC.mkv" -i "G:\\\xc0\xed\xe8\xec\xe5\\\xce\xed\xe3\xee\xe8\xed\xe3\xe8\\!_36_\xce\xf1\xe5\xed\xfc_2024\\DreamCast\\\xd6\xe8\xea\xeb \xe8\xf1\xf2\xee\xf0\xe8\xe9 - \xcc\xe5\xe6\xf1\xe5\xe7\xee\xed\xfc\xe5 \xe8 \xf1\xe5\xe7\xee\xed \xec\xee\xed\xf1\xf2\xf0\xee\xe2\\DC_Monogatari_Series_Off_and_Monster_Season_11_Telegram.mp4" -lavfi "[0:v]settb=AVTB,setpts=PTS-STARTPTS,format=pix_fmts=yuv420p10,fps=24000/1001,scale=1920:1080:flags=bicubic[main];[1:v]settb=AVTB,setpts=PTS-STARTPTS,format=pix_fmts=yuv420p,fps=24000/1001,scale=1920:1080:flags=bicubic[ref];[main][ref]ssim=eof_action=endall:stats_file='D\\:/Convert/FFMetrics/logs/ssim_logfile-6.txt'" -f null -
Input #0, matroska,webm, from 'G:\Аниме\Онгоинги\!_36_Осень_2024\DreamCast\Цикл историй - Межсезонье и сезон монстров\DC_Monogatari_Series_Off_and_Monster_Season_11_Telegram_HEVC.mkv':
  Metadata:
    COMPATIBLE_BRANDS: isomiso2avc1mp41
    MAJOR_BRAND     : isom
    MINOR_VERSION   : 512
    ENCODER         : Lavf61.7.100
  Duration: 00:23:56.72, start: -0.021000, bitrate: 1646 kb/s
  Stream #0:0: Video: hevc (Main 10), yuv420p10le(tv, bt709, progressive), 1920x1080 [SAR 1:1 DAR 16:9], 23.98 fps, 23.98 tbr, 1k tbn (default)
      Metadata:
        HANDLER_NAME    : VideoHandler
        VENDOR_ID       : [0][0][0][0]
        ENCODER         : Lavc61.19.100 libx265
        BPS             : 1464816
        DURATION        : 00:23:41.544708333
        NUMBER_OF_FRAMES: 34083
        NUMBER_OF_BYTES : 260287704
        _STATISTICS_WRITING_APP: mkvpropedit v66.0.0 ('Josie') 64-bit
        _STATISTICS_WRITING_DATE_UTC: 2025-06-05 12:12:44
        _STATISTICS_TAGS: BPS DURATION NUMBER_OF_FRAMES NUMBER_OF_BYTES
  Stream #0:1: Audio: aac (LC), 48000 Hz, stereo, fltp (default)
      Metadata:
        HANDLER_NAME    : SoundHandler
        VENDOR_ID       : [0][0][0][0]
        ENCODER         : Lavc61.19.100 aac
        BPS             : 193504
        DURATION        : 00:23:56.714000000
        NUMBER_OF_FRAMES: 67347
        NUMBER_OF_BYTES : 34751401
        _STATISTICS_WRITING_APP: mkvpropedit v66.0.0 ('Josie') 64-bit
        _STATISTICS_WRITING_DATE_UTC: 2025-06-05 12:12:44
        _STATISTICS_TAGS: BPS DURATION NUMBER_OF_FRAMES NUMBER_OF_BYTES
Input #1, mov,mp4,m4a,3gp,3g2,mj2, from 'G:\Аниме\Онгоинги\!_36_Осень_2024\DreamCast\Цикл историй - Межсезонье и сезон монстров\DC_Monogatari_Series_Off_and_Monster_Season_11_Telegram.mp4':
  Metadata:
    major_brand     : isom
    minor_version   : 512
    compatible_brands: isomiso2avc1mp41
    encoder         : Lavf61.1.100
  Duration: 00:23:56.68, start: 0.000000, bitrate: 3433 kb/s
  Stream #1:0[0x1](und): Video: h264 (High) (avc1 / 0x31637661), yuv420p(tv, bt709, progressive), 1920x1080 [SAR 1:1 DAR 16:9], 3321 kb/s, 23.98 fps, 23.98 tbr, 24k tbn (default)
      Metadata:
        handler_name    : VideoHandler
        vendor_id       : [0][0][0][0]
        encoder         : Lavc61.3.100 h264_qsv
  Stream #1:1[0x2](und): Audio: aac (HE-AACv2) (mp4a / 0x6134706D), 48000 Hz, stereo, fltp, 144 kb/s (default)
      Metadata:
        handler_name    : SoundHandler
        vendor_id       : [0][0][0][0]
Stream mapping:
  Stream #0:0 (hevc) -> settb:default
  Stream #1:0 (h264) -> settb:default
  ssim:default -> Stream #0:0 (wrapped_avframe)
  Stream #0:1 -> #0:1 (aac (native) -> pcm_s16le (native))
Output #0, null, to 'pipe:':
  Metadata:
    COMPATIBLE_BRANDS: isomiso2avc1mp41
    MAJOR_BRAND     : isom
    MINOR_VERSION   : 512
    encoder         : Lavf61.7.100
  Stream #0:0: Video: wrapped_avframe, yuv420p10le(tv, bt709, progressive), 1920x1080 [SAR 1:1 DAR 16:9], q=2-31, 200 kb/s, 23.98 fps, 23.98 tbn
      Metadata:
        encoder         : Lavc61.19.100 wrapped_avframe
  Stream #0:1: Audio: pcm_s16le, 48000 Hz, stereo, s16, 1536 kb/s (default)
      Metadata:
        HANDLER_NAME    : SoundHandler
        VENDOR_ID       : [0][0][0][0]
        _STATISTICS_TAGS: BPS DURATION NUMBER_OF_FRAMES NUMBER_OF_BYTES
        BPS             : 193504
        DURATION        : 00:23:56.714000000
        NUMBER_OF_FRAMES: 67347
        NUMBER_OF_BYTES : 34751401
        _STATISTICS_WRITING_APP: mkvpropedit v66.0.0 ('Josie') 64-bit
        _STATISTICS_WRITING_DATE_UTC: 2025-06-05 12:12:44
        encoder         : Lavc61.19.100 pcm_s16le
frame=  190 fps=0.0 q=-0.0 size=N/A time=00:00:07.92 bitrate=N/A speed=15.1x    frame=  416 fps=401 q=-0.0 size=N/A time=00:00:17.35 bitrate=N/A speed=16.7x    frame=  572 fps=370 q=-0.0 size=N/A time=00:00:23.85 bitrate=N/A speed=15.4x    frame=  783 fps=378 q=-0.0 size=N/A time=00:00:32.65 bitrate=N/A speed=15.8x    frame=  962 fps=372 q=-0.0 size=N/A time=00:00:40.12 bitrate=N/A speed=15.5x    frame= 1159 fps=374 q=-0.0 size=N/A time=00:00:48.33 bitrate=N/A speed=15.6x    frame= 1383 fps=382 q=-0.0 size=N/A time=00:00:57.68 bitrate=N/A speed=15.9x    frame= 1615 fps=391 q=-0.0 size=N/A time=00:01:07.35 bitrate=N/A speed=16.3x    frame= 1804 fps=388 q=-0.0 size=N/A time=00:01:15.24 bitrate=N/A speed=16.2x    frame= 1967 fps=380 q=-0.0 size=N/A time=00:01:22.04 bitrate=N/A speed=15.8x    frame= 2151 fps=378 q=-0.0 size=N/A time=00:01:29.71 bitrate=N/A speed=15.8x    frame= 2324 fps=375 q=-0.0 size=N/A time=00:01:36.93 bitrate=N/A speed=15.6x    frame= 2505 fps=372 q=-0.0 size=N/A time=00:01:44.47 bitrate=N/A speed=15.5x    frame= 2676 fps=370 q=-0.0 size=N/A time=00:01:51.61 bitrate=N/A speed=15.4x    frame= 2875 fps=371 q=-0.0 size=N/A time=00:01:59.91 bitrate=N/A speed=15.5x    frame= 3106 fps=375 q=-0.0 size=N/A time=00:02:09.54 bitrate=N/A speed=15.6x    frame= 3360 fps=382 q=-0.0 size=N/A time=00:02:20.14 bitrate=N/A speed=15.9x    frame= 3571 fps=384 q=-0.0 size=N/A time=00:02:28.94 bitrate=N/A speed=  16x    frame= 3778 fps=385 q=-0.0 size=N/A time=00:02:37.57 bitrate=N/A speed=16.1x    frame= 4020 fps=389 q=-0.0 size=N/A time=00:02:47.66 bitrate=N/A speed=16.2x    frame= 4224 fps=389 q=-0.0 size=N/A time=00:02:56.17 bitrate=N/A speed=16.2x    frame= 4396 fps=387 q=-0.0 size=N/A time=00:03:03.34 bitrate=N/A speed=16.1x    frame= 4584 fps=386 q=-0.0 size=N/A time=00:03:11.19 bitrate=N/A speed=16.1x    frame= 4801 fps=387 q=-0.0 size=N/A time=00:03:20.24 bitrate=N/A speed=16.2x    frame= 5004 fps=388 q=-0.0 size=N/A time=00:03:28.70 bitrate=N/A speed=16.2x    frame= 5227 fps=389 q=-0.0 size=N/A time=00:03:38.00 bitrate=N/A speed=16.2x    frame= 5473 fps=393 q=-0.0 size=N/A time=00:03:48.26 bitrate=N/A speed=16.4x    frame= 5669 fps=392 q=-0.0 size=N/A time=00:03:56.44 bitrate=N/A speed=16.3x    frame= 5855 fps=391 q=-0.0 size=N/A time=00:04:04.20 bitrate=N/A speed=16.3x    frame= 6058 fps=391 q=-0.0 size=N/A time=00:04:12.66 bitrate=N/A speed=16.3x    frame= 6254 fps=391 q=-0.0 size=N/A time=00:04:20.84 bitrate=N/A speed=16.3x    frame= 6446 fps=390 q=-0.0 size=N/A time=00:04:28.85 bitrate=N/A speed=16.3x    frame= 6634 fps=390 q=-0.0 size=N/A time=00:04:36.69 bitrate=N/A speed=16.2x    frame= 6813 fps=388 q=-0.0 size=N/A time=00:04:44.15 bitrate=N/A speed=16.2x    frame= 6973 fps=386 q=-0.0 size=N/A time=00:04:50.83 bitrate=N/A speed=16.1x    frame= 7230 fps=389 q=-0.0 size=N/A time=00:05:01.55 bitrate=N/A speed=16.2x    frame= 7389 fps=387 q=-0.0 size=N/A time=00:05:08.18 bitrate=N/A speed=16.1x    frame= 7650 fps=390 q=-0.0 size=N/A time=00:05:19.06 bitrate=N/A speed=16.3x    frame= 7859 fps=391 q=-0.0 size=N/A time=00:05:27.78 bitrate=N/A speed=16.3x    frame= 8071 fps=391 q=-0.0 size=N/A time=00:05:36.62 bitrate=N/A speed=16.3x    frame= 8324 fps=393 q=-0.0 size=N/A time=00:05:47.18 bitrate=N/A speed=16.4x    frame= 8502 fps=392 q=-0.0 size=N/A time=00:05:54.60 bitrate=N/A speed=16.4x    frame= 8716 fps=393 q=-0.0 size=N/A time=00:06:03.52 bitrate=N/A speed=16.4x    frame= 8961 fps=395 q=-0.0 size=N/A time=00:06:13.74 bitrate=N/A speed=16.5x    frame= 9178 fps=395 q=-0.0 size=N/A time=00:06:22.79 bitrate=N/A speed=16.5x    frame= 9381 fps=395 q=-0.0 size=N/A time=00:06:31.26 bitrate=N/A speed=16.5x    frame= 9542 fps=393 q=-0.0 size=N/A time=00:06:37.98 bitrate=N/A speed=16.4x    frame= 9803 fps=396 q=-0.0 size=N/A time=00:06:48.86 bitrate=N/A speed=16.5x    frame=10075 fps=398 q=-0.0 size=N/A time=00:07:00.21 bitrate=N/A speed=16.6x    frame=10344 fps=401 q=-0.0 size=N/A time=00:07:11.43 bitrate=N/A speed=16.7x    frame=10639 fps=404 q=-0.0 size=N/A time=00:07:23.73 bitrate=N/A speed=16.9x    frame=10911 fps=407 q=-0.0 size=N/A time=00:07:35.07 bitrate=N/A speed=  17x    frame=11146 fps=408 q=-0.0 size=N/A time=00:07:44.88 bitrate=N/A speed=  17x    frame=11408 fps=409 q=-0.0 size=N/A time=00:07:55.80 bitrate=N/A speed=17.1x    frame=11705 fps=412 q=-0.0 size=N/A time=00:08:08.19 bitrate=N/A speed=17.2x    frame=11952 fps=414 q=-0.0 size=N/A time=00:08:18.49 bitrate=N/A speed=17.3x    frame=12253 fps=417 q=-0.0 size=N/A time=00:08:31.05 bitrate=N/A speed=17.4x    frame=12506 fps=418 q=-0.0 size=N/A time=00:08:41.60 bitrate=N/A speed=17.4x    frame=12779 fps=420 q=-0.0 size=N/A time=00:08:52.99 bitrate=N/A speed=17.5x    frame=13015 fps=420 q=-0.0 size=N/A time=00:09:02.83 bitrate=N/A speed=17.5x    frame=13267 fps=422 q=-0.0 size=N/A time=00:09:13.34 bitrate=N/A speed=17.6x    frame=13554 fps=424 q=-0.0 size=N/A time=00:09:25.31 bitrate=N/A speed=17.7x    frame=13806 fps=425 q=-0.0 size=N/A time=00:09:35.82 bitrate=N/A speed=17.7x    frame=14070 fps=426 q=-0.0 size=N/A time=00:09:46.83 bitrate=N/A speed=17.8x    frame=14367 fps=428 q=-0.0 size=N/A time=00:09:59.22 bitrate=N/A speed=17.9x    frame=14640 fps=430 q=-0.0 size=N/A time=00:10:10.61 bitrate=N/A speed=17.9x    frame=14931 fps=432 q=-0.0 size=N/A time=00:10:22.74 bitrate=N/A speed=  18x    frame=15206 fps=433 q=-0.0 size=N/A time=00:10:34.21 bitrate=N/A speed=18.1x    frame=15487 fps=435 q=-0.0 size=N/A time=00:10:45.93 bitrate=N/A speed=18.1x    frame=15772 fps=437 q=-0.0 size=N/A time=00:10:57.82 bitrate=N/A speed=18.2x    frame=16049 fps=438 q=-0.0 size=N/A time=00:11:09.37 bitrate=N/A speed=18.3x    frame=16321 fps=439 q=-0.0 size=N/A time=00:11:20.72 bitrate=N/A speed=18.3x    frame=16554 fps=440 q=-0.0 size=N/A time=00:11:30.43 bitrate=N/A speed=18.3x    frame=16802 fps=440 q=-0.0 size=N/A time=00:11:40.78 bitrate=N/A speed=18.4x    frame=17091 fps=442 q=-0.0 size=N/A time=00:11:52.83 bitrate=N/A speed=18.4x    frame=17342 fps=442 q=-0.0 size=N/A time=00:12:03.30 bitrate=N/A speed=18.4x    frame=17633 fps=444 q=-0.0 size=N/A time=00:12:15.44 bitrate=N/A speed=18.5x    frame=17926 fps=446 q=-0.0 size=N/A time=00:12:27.66 bitrate=N/A speed=18.6x    frame=18207 fps=447 q=-0.0 size=N/A time=00:12:39.38 bitrate=N/A speed=18.6x    frame=18493 fps=448 q=-0.0 size=N/A time=00:12:51.31 bitrate=N/A speed=18.7x    frame=18780 fps=449 q=-0.0 size=N/A time=00:13:03.28 bitrate=N/A speed=18.7x    frame=19086 fps=451 q=-0.0 size=N/A time=00:13:16.04 bitrate=N/A speed=18.8x    frame=19376 fps=453 q=-0.0 size=N/A time=00:13:28.14 bitrate=N/A speed=18.9x    frame=19658 fps=454 q=-0.0 size=N/A time=00:13:39.90 bitrate=N/A speed=18.9x    frame=19946 fps=455 q=-0.0 size=N/A time=00:13:51.91 bitrate=N/A speed=  19x    frame=20237 fps=456 q=-0.0 size=N/A time=00:14:04.05 bitrate=N/A speed=  19x    frame=20542 fps=458 q=-0.0 size=N/A time=00:14:16.77 bitrate=N/A speed=19.1x    frame=20796 fps=458 q=-0.0 size=N/A time=00:14:27.36 bitrate=N/A speed=19.1x    frame=21064 fps=459 q=-0.0 size=N/A time=00:14:38.54 bitrate=N/A speed=19.1x    frame=21287 fps=458 q=-0.0 size=N/A time=00:14:47.84 bitrate=N/A speed=19.1x    frame=21527 fps=458 q=-0.0 size=N/A time=00:14:57.85 bitrate=N/A speed=19.1x    frame=21765 fps=458 q=-0.0 size=N/A time=00:15:07.78 bitrate=N/A speed=19.1x    frame=22008 fps=459 q=-0.0 size=N/A time=00:15:17.91 bitrate=N/A speed=19.1x    frame=22233 fps=458 q=-0.0 size=N/A time=00:15:27.30 bitrate=N/A speed=19.1x    frame=22497 fps=459 q=-0.0 size=N/A time=00:15:38.31 bitrate=N/A speed=19.1x    frame=22775 fps=460 q=-0.0 size=N/A time=00:15:49.90 bitrate=N/A speed=19.2x    frame=23062 fps=461 q=-0.0 size=N/A time=00:16:01.87 bitrate=N/A speed=19.2x    frame=23328 fps=461 q=-0.0 size=N/A time=00:16:12.97 bitrate=N/A speed=19.2x    frame=23622 fps=462 q=-0.0 size=N/A time=00:16:25.23 bitrate=N/A speed=19.3x    frame=23891 fps=463 q=-0.0 size=N/A time=00:16:36.45 bitrate=N/A speed=19.3x    frame=24149 fps=463 q=-0.0 size=N/A time=00:16:47.21 bitrate=N/A speed=19.3x    frame=24444 fps=464 q=-0.0 size=N/A time=00:16:59.51 bitrate=N/A speed=19.4x    frame=24726 fps=465 q=-0.0 size=N/A time=00:17:11.28 bitrate=N/A speed=19.4x    frame=24987 fps=466 q=-0.0 size=N/A time=00:17:22.16 bitrate=N/A speed=19.4x    frame=25270 fps=466 q=-0.0 size=N/A time=00:17:33.96 bitrate=N/A speed=19.5x    frame=25536 fps=467 q=-0.0 size=N/A time=00:17:45.06 bitrate=N/A speed=19.5x    frame=25820 fps=468 q=-0.0 size=N/A time=00:17:56.90 bitrate=N/A speed=19.5x    frame=26126 fps=469 q=-0.0 size=N/A time=00:18:09.67 bitrate=N/A speed=19.6x    frame=26402 fps=469 q=-0.0 size=N/A time=00:18:21.18 bitrate=N/A speed=19.6x    frame=26608 fps=469 q=-0.0 size=N/A time=00:18:29.77 bitrate=N/A speed=19.6x    frame=26895 fps=470 q=-0.0 size=N/A time=00:18:41.74 bitrate=N/A speed=19.6x    frame=27186 fps=470 q=-0.0 size=N/A time=00:18:53.88 bitrate=N/A speed=19.6x    frame=27455 fps=471 q=-0.0 size=N/A time=00:19:05.10 bitrate=N/A speed=19.6x    frame=27720 fps=471 q=-0.0 size=N/A time=00:19:16.15 bitrate=N/A speed=19.6x    frame=28004 fps=472 q=-0.0 size=N/A time=00:19:28.00 bitrate=N/A speed=19.7x    frame=28283 fps=472 q=-0.0 size=N/A time=00:19:39.63 bitrate=N/A speed=19.7x    frame=28575 fps=473 q=-0.0 size=N/A time=00:19:51.81 bitrate=N/A speed=19.7x    frame=28819 fps=473 q=-0.0 size=N/A time=00:20:01.99 bitrate=N/A speed=19.7x    frame=29045 fps=473 q=-0.0 size=N/A time=00:20:11.41 bitrate=N/A speed=19.7x    frame=29180 fps=471 q=-0.0 size=N/A time=00:20:17.04 bitrate=N/A speed=19.7x    frame=29370 fps=470 q=-0.0 size=N/A time=00:20:24.97 bitrate=N/A speed=19.6x    frame=29627 fps=471 q=-0.0 size=N/A time=00:20:35.69 bitrate=N/A speed=19.6x    frame=29870 fps=471 q=-0.0 size=N/A time=00:20:45.82 bitrate=N/A speed=19.6x    frame=30130 fps=471 q=-0.0 size=N/A time=00:20:56.67 bitrate=N/A speed=19.6x    frame=30432 fps=472 q=-0.0 size=N/A time=00:21:09.26 bitrate=N/A speed=19.7x    frame=30702 fps=472 q=-0.0 size=N/A time=00:21:20.52 bitrate=N/A speed=19.7x    frame=30964 fps=472 q=-0.0 size=N/A time=00:21:31.45 bitrate=N/A speed=19.7x    frame=31231 fps=473 q=-0.0 size=N/A time=00:21:42.59 bitrate=N/A speed=19.7x    frame=31487 fps=473 q=-0.0 size=N/A time=00:21:53.27 bitrate=N/A speed=19.7x    frame=31739 fps=473 q=-0.0 size=N/A time=00:22:03.78 bitrate=N/A speed=19.7x    frame=31967 fps=473 q=-0.0 size=N/A time=00:22:13.29 bitrate=N/A speed=19.7x    frame=32120 fps=472 q=-0.0 size=N/A time=00:22:19.67 bitrate=N/A speed=19.7x    frame=32265 fps=470 q=-0.0 size=N/A time=00:22:25.71 bitrate=N/A speed=19.6x    frame=32393 fps=468 q=-0.0 size=N/A time=00:22:31.05 bitrate=N/A speed=19.5x    frame=32519 fps=467 q=-0.0 size=N/A time=00:22:36.31 bitrate=N/A speed=19.5x    frame=32667 fps=465 q=-0.0 size=N/A time=00:22:42.48 bitrate=N/A speed=19.4x    frame=32809 fps=464 q=-0.0 size=N/A time=00:22:48.40 bitrate=N/A speed=19.4x    frame=32941 fps=463 q=-0.0 size=N/A time=00:22:53.91 bitrate=N/A speed=19.3x    frame=33068 fps=461 q=-0.0 size=N/A time=00:22:59.21 bitrate=N/A speed=19.2x    frame=33207 fps=460 q=-0.0 size=N/A time=00:23:05.00 bitrate=N/A speed=19.2x    frame=33384 fps=459 q=-0.0 size=N/A time=00:23:12.39 bitrate=N/A speed=19.1x    frame=33529 fps=458 q=-0.0 size=N/A time=00:23:18.43 bitrate=N/A speed=19.1x    frame=33678 fps=456 q=-0.0 size=N/A time=00:23:24.65 bitrate=N/A speed=  19x    frame=33827 fps=455 q=-0.0 size=N/A time=00:23:30.86 bitrate=N/A speed=  19x    frame=33977 fps=454 q=-0.0 size=N/A time=00:23:37.12 bitrate=N/A speed=18.9x    [Parsed_ssim_10 @ 000001ea2ce99140] SSIM Y:0.994301 (22.441810) U:0.994204 (22.368888) V:0.994292 (22.435263) All:0.994283 (22.428482)
[out#0/null @ 000001ea20186540] video:14645KiB audio:269388KiB subtitle:0KiB other streams:0KiB global headers:0KiB muxing overhead: unknown
frame=34083 fps=454 q=-0.0 Lsize=N/A time=00:23:41.54 bitrate=N/A speed=18.9x    
